HIERARCHY
ROOT Hips
{
	OFFSET 0.00000 0.00000 0.00000
	CHANNELS 6 Xposition Yposition Zposition Zrotation Yrotation Xrotation 
	JOINT LHipJoint
	{
		OFFSET 0 0 0
		CHANNELS 3 Zrotation Yrotation Xrotation
		JOINT LeftHip
		{
			OFFSET 1.34019 -1.87553 0.90315
			CHANNELS 3 Zrotation Yrotation Xrotation
			JOINT LeftKnee
			{
				OFFSET 2.55316 -7.01474 0.00000
				CHANNELS 3 Zrotation Yrotation Xrotation
				JOINT LeftAnkle
				{
					OFFSET 2.64657 -7.27139 0.00000
					CHANNELS 3 Zrotation Yrotation Xrotation
					JOINT LeftToe
					{
						OFFSET 0.24207 -0.66507 2.14489
						CHANNELS 3 Zrotation Yrotation Xrotation
						End Site
						{
							OFFSET 0.00000 -0.00000 1.12451
						}
					}
				}
			}
		}
	}
	JOINT RHipJoint
	{
		OFFSET 0 0 0
		CHANNELS 3 Zrotation Yrotation Xrotation
		JOINT RightHip
		{
			OFFSET -1.28320 -1.87553 0.90315
			CHANNELS 3 Zrotation Yrotation Xrotation
			JOINT RightKnee
			{
				OFFSET -2.60484 -7.15674 0.00000
				CHANNELS 3 Zrotation Yrotation Xrotation
				JOINT RightAnkle
				{
					OFFSET -2.60296 -7.15159 0.00000
					CHANNELS 3 Zrotation Yrotation Xrotation
					JOINT RightToe
					{
						OFFSET -0.31082 -0.85398 2.28998
						CHANNELS 3 Zrotation Yrotation Xrotation
						End Site
						{
							OFFSET -0.00000 -0.00000 1.21611
						}
					}
				}
			}
		}
	}
	JOINT lowerback
	{
		OFFSET 0 0 0
		CHANNELS 3 Zrotation Yrotation Xrotation
		JOINT Chest
		{
			OFFSET -0.00160 2.05581 -0.15156
			CHANNELS 3 Zrotation Yrotation Xrotation
			JOINT Chest2
			{
				OFFSET 0.04594 2.06326 -0.01617
				CHANNELS 3 Zrotation Yrotation Xrotation
				JOINT lowerneck
				{
					OFFSET 0 0 0
					CHANNELS 3 Zrotation Yrotation Xrotation
					JOINT Neck
					{
						OFFSET 0.03753 1.73883 0.26751
						CHANNELS 3 Zrotation Yrotation Xrotation
						JOINT Head
						{
							OFFSET -0.09795 1.76129 -0.31794
							CHANNELS 3 Zrotation Yrotation Xrotation
							End Site
							{
								OFFSET -0.03611 1.79987 -0.13846
							}
						}
					}
				}
				JOINT LeftCollar
				{
					OFFSET 0 0 0
					CHANNELS 3 Zrotation Yrotation Xrotation
					JOINT LeftShoulder
					{
						OFFSET 3.30667 1.29205 -0.22445
CHANNELS 3 Zrotation Xrotation Yrotation
						JOINT LeftElbow
						{
OFFSET 0 -4.927850 -0.000000
CHANNELS 3 Zrotation Xrotation Yrotation
							JOINT LeftWrist
							{
OFFSET 0 -3.440520 0.000000
CHANNELS 3 Zrotation Xrotation Yrotation
								JOINT lhand
								{
									OFFSET 0 0 0
CHANNELS 3 Zrotation Xrotation Yrotation
									JOINT LFingers
									{
OFFSET 0 -0.654330 0.000000
CHANNELS 3 Zrotation Xrotation Yrotation
										End Site
										{
OFFSET 0 -0.527530 0.000000
										}
									}
								}
								JOINT LThumb
								{
OFFSET 0 0.000000 0.000000
CHANNELS 3 Zrotation Xrotation Yrotation
									End Site
									{
OFFSET 0 -0.535590 0.535590
									}
								}
							}
						}
					}
				}
				JOINT RightCollar
				{
					OFFSET 0 0 0
					CHANNELS 3 Zrotation Yrotation Xrotation
					JOINT RightShoulder
					{
						OFFSET -3.20032 1.49783 -0.27688
CHANNELS 3 Zrotation Xrotation Yrotation
						JOINT RightElbow
						{
OFFSET 0 -5.091810 -0.000000
CHANNELS 3 Zrotation Xrotation Yrotation
							JOINT RightWrist
							{
OFFSET 0 -3.498650 -0.000000
CHANNELS 3 Zrotation Xrotation Yrotation
								JOINT rhand
								{
									OFFSET 0 0 0
CHANNELS 3 Zrotation Xrotation Yrotation
									JOINT RFingers
									{
OFFSET 0 -0.666410 0.000000
CHANNELS 3 Zrotation Xrotation Yrotation
										End Site
										{
OFFSET 0 -0.537280 0.000000
										}
									}
								}
								JOINT RThumb
								{
OFFSET 0 0.000000 0.000000
CHANNELS 3 Zrotation Xrotation Yrotation
									End Site
									{
OFFSET 0 -0.545480 0.545480
									}
								}
							}
						}
					}
				}
			}
		}
	}
}
MOTION
Frames: 12
Frame Time: 0.008333333333333333
-0.007200 17.785300 -30.842800 -2.180500 1.806100 -0.387900 0.000000 0.000000 0.000000 -13.902600 -1.884300 -3.345700 1.997600 8.861100 25.361700 0.049700 12.271500 -18.092900 1.716500 -8.248900 -23.472500 0.000000 0.000000 0.000000 20.233800 1.092300 -6.419900 -2.808900 -10.379100 30.213300 -0.344000 -12.090500 -21.158700 -0.135700 2.374100 -6.540700 -3.800300 -0.468600 2.914800 4.347400 -0.664200 -1.240700 6.710000 -0.218700 -2.828300 4.402300 -6.887900 -20.046500 -6.799200 -9.393100 28.167300 -4.770500 -4.661100 11.987900 -0.000000 -0.000000 0.000000 -0.831300 3.565100 -31.159100 15.909200 -25.397400 3.606900 10.202700 -4.409800 0.099600 0.000000 0.000000 0.000000 -7.125000 0.000000 0.000000 -12.803200 29.750900 -4.872400 -0.000000 -0.000000 0.000000 -6.144500 0.449100 13.122800 -12.185400 -20.082100 -2.165500 -15.696300 1.849000 5.842500 0.000000 0.000000 0.000000 7.125000 0.000000 -0.000000 9.219600 35.917100 2.080300
0.014669 17.787236 -30.804747 -2.094818 3.460802 1.067682 0.000000 0.000000 0.000000 -13.759030 -2.514700 -5.561535 2.137040 9.145758 26.252446 0.187490 10.900949 -18.032581 0.353102 -3.817612 -10.564025 0.000000 0.000000 0.000000 20.148059 0.622045 -8.332751 -2.939913 -10.597210 30.933110 -0.340666 -12.660949 -21.778931 -0.138287 2.396701 -6.603243 -2.661343 -1.139368 1.327584 3.439044 -1.514488 -1.657884 5.100130 -0.679629 -2.290397 5.821809 -6.298017 -20.358142 -7.265850 -8.912809 28.662237 -5.156594 -4.345947 12.172013 0.000000 0.000000 0.000000 0.457227 3.940898 -30.424484 15.655043 -25.050675 3.498620 10.162859 -4.661098 0.076070 0.000000 0.000000 0.000000 -7.125000 0.000000 0.000000 -12.836992 29.773653 -4.878743 0.000000 0.000000 0.000000 -4.536377 1.089633 10.579451 -11.076860 -18.405962 -1.800157 -15.795283 4.718984 5.262921 0.000000 0.000000 0.000000 7.125000 0.000000 0.000000 9.056203 35.328370 2.174092
0.068823 17.565674 -30.938355 -2.098680 3.739023 0.957015 0.000000 0.000000 0.000000 -13.344981 -0.899311 -11.095662 3.524550 11.498413 33.980954 0.675330 7.857716 -20.316671 0.400861 -4.064644 -11.258690 0.000000 0.000000 0.000000 19.545033 -0.159010 -12.295233 -4.142432 -12.347062 36.971785 -0.755551 -11.095454 -23.939753 -0.160964 2.584740 -7.124573 -1.536335 -0.981895 3.063848 2.784090 -1.297027 -1.327858 3.808187 -0.588803 -2.987451 6.258890 -5.555571 -19.732630 -7.269861 -7.930441 27.808802 -5.004595 -3.883518 11.774925 0.000000 0.000000 0.000000 1.782783 4.024856 -30.402040 15.761708 -25.196433 3.543879 9.764697 -4.310562 -0.106274 0.000000 0.000000 0.000000 -7.125000 0.000000 0.000000 -13.168401 29.947189 -4.954750 0.000000 0.000000 0.000000 -3.565594 1.294609 10.344957 -11.424611 -18.936135 -1.911482 -15.389887 4.060438 5.403770 0.000000 0.000000 0.000000 7.125000 0.000000 0.000000 9.409716 35.452665 2.231995
0.132828 16.943200 -31.174546 -2.592106 3.322728 -0.946373 0.000000 0.000000 0.000000 -11.832878 1.385356 -17.688453 6.480174 14.877310 46.878213 1.502252 4.363697 -25.078616 0.532325 -4.675228 -12.984497 0.000000 0.000000 0.000000 19.144978 -0.437135 -17.588404 -7.042623 -15.366557 49.033306 -1.472984 -9.992487 -28.471553 -0.218265 3.007698 -8.300121 -0.311899 -0.440657 7.298266 2.518191 -0.514278 0.358814 2.837386 -0.229920 -3.697140 6.850026 -4.379700 -19.074858 -7.097727 -6.423247 25.157250 -4.652774 -3.182802 10.757985 0.000000 0.000000 0.000000 3.777091 3.349876 -33.211625 17.726454 -27.805384 4.420961 10.023609 -6.729786 -0.055702 0.000000 0.000000 0.000000 -7.125000 0.000000 0.000000 -12.961693 29.901697 -4.887681 0.000000 0.000000 0.000000 -3.771021 0.876083 14.580904 -13.950317 -22.663440 -2.809047 -15.459197 -0.710930 5.123162 0.000000 0.000000 0.000000 7.125000 0.000000 0.000000 9.313277 35.169122 2.273673
0.167137 16.204782 -31.293477 -1.555880 3.380217 -2.002131 0.000000 0.000000 0.000000 -11.937515 2.733371 -23.209091 9.678945 17.224594 58.408809 2.374701 2.592508 -30.142150 0.611817 -5.006339 -13.926808 0.000000 0.000000 0.000000 17.022816 -0.447111 -23.028560 -10.572748 -17.718946 61.385352 -2.232130 -10.003106 -33.223046 -0.278722 3.395360 -9.381449 -0.996527 -0.533150 9.518963 2.123129 -0.724987 1.911134 2.853737 -0.343653 -3.310068 6.971234 -2.612942 -19.039380 -7.426024 -3.854907 24.921495 -4.449987 -2.039041 10.875592 0.000000 0.000000 0.000000 4.583835 2.411593 -31.208975 18.173675 -28.378975 4.631527 11.067197 -6.991716 0.199680 0.000000 0.000000 0.000000 -7.125000 0.000000 0.000000 -12.122991 29.664720 -4.627913 0.000000 0.000000 0.000000 -4.201278 -0.863232 16.043245 -15.137355 -24.337065 -3.282350 -16.166730 -1.503240 4.960698 0.000000 0.000000 0.000000 7.125000 0.000000 0.000000 8.710126 35.035797 2.152055
0.245683 15.649974 -31.303501 -1.674268 3.372763 -2.787990 0.000000 0.000000 0.000000 -11.318827 2.868365 -26.389429 12.195527 18.471905 66.607077 3.012112 2.322668 -33.716566 0.662272 -5.204627 -14.493156 0.000000 0.000000 0.000000 16.175522 -0.528489 -26.001248 -13.040581 -18.796549 69.251257 -2.805323 -9.939154 -36.310475 -0.319750 3.634611 -10.050821 -0.320822 -0.326684 11.007103 2.308124 -0.376499 2.821293 2.633061 -0.182437 -3.208647 6.845770 -1.305248 -19.086186 -7.662318 -1.893376 24.716314 -4.243730 -1.186044 10.982965 0.000000 0.000000 0.000000 4.421577 2.097125 -28.126298 16.644518 -26.386595 3.928153 11.106566 -5.176202 -0.230314 0.000000 0.000000 0.000000 -7.125000 0.000000 0.000000 -12.145456 30.093689 -4.509555 0.000000 0.000000 0.000000 -4.556810 -0.873313 13.544924 -15.031836 -24.190402 -3.238992 -16.247243 -2.280161 5.160286 0.000000 0.000000 0.000000 7.125000 0.000000 0.000000 8.670216 35.244864 2.097413
0.315400 15.408190 -31.271144 -1.578032 2.780086 -2.689919 0.000000 0.000000 0.000000 -11.364097 2.952406 -27.896777 13.340539 18.901671 70.179956 3.296198 2.517699 -35.306947 0.695777 -5.332115 -14.858311 0.000000 0.000000 0.000000 15.479977 -0.253954 -27.637482 -14.193622 -19.171685 72.794954 -3.112418 -9.392559 -37.560243 -0.317886 3.624136 -10.021485 -0.447319 -0.081536 11.859924 2.737291 -0.048414 3.224806 3.114929 -0.021437 -3.270523 6.955867 -0.024362 -19.479510 -8.455063 0.052394 23.822690 -4.255828 -0.400610 10.901303 0.000000 0.000000 0.000000 3.879764 3.246595 -25.583450 15.597578 -24.971970 3.474335 10.299406 -3.544834 -0.897518 0.000000 0.000000 0.000000 -7.125000 0.000000 0.000000 -12.860446 30.740698 -4.582787 0.000000 0.000000 0.000000 -5.566011 -0.598054 11.512301 -13.688714 -22.287827 -2.708991 -15.604601 0.382674 4.910745 0.000000 0.000000 0.000000 7.125000 0.000000 0.000000 9.164865 34.958620 2.284137
0.369991 15.425171 -31.241395 -1.601882 2.555250 -1.774032 0.000000 0.000000 0.000000 -11.613338 2.865440 -28.886201 13.435636 18.933863 70.473161 3.285023 2.550640 -35.260614 0.695720 -5.331906 -14.857682 0.000000 0.000000 0.000000 15.245812 -0.033015 -28.553578 -14.189567 -19.170512 72.782537 -3.126643 -9.082361 -37.459583 -0.303047 3.539511 -9.784587 -0.832830 -0.361076 12.074456 3.333473 -0.441264 3.317857 4.020942 -0.216540 -3.258512 7.627603 1.547435 -19.416236 -9.872867 2.325228 21.741215 -4.491656 0.523977 10.369520 0.000000 0.000000 0.000000 3.331915 4.761071 -24.222176 15.423501 -24.732822 3.401157 9.379778 -3.059560 -1.147737 0.000000 0.000000 0.000000 -7.125000 0.000000 0.000000 -13.612367 30.966410 -4.788507 0.000000 0.000000 0.000000 -6.621718 -0.280678 10.623937 -12.902499 -21.144200 -2.417995 -15.580351 1.389853 5.641660 0.000000 0.000000 0.000000 7.125000 0.000000 0.000000 9.286554 35.705545 2.144183
0.428232 15.557965 -31.242243 -2.055821 2.644486 -0.652478 0.000000 0.000000 0.000000 -11.589424 2.512780 -29.679835 13.064432 18.805279 69.325341 3.125458 2.746631 -34.490032 0.638648 -5.112891 -14.230869 0.000000 0.000000 0.000000 15.625657 -0.123591 -29.053438 -13.570520 -18.978540 70.888565 -2.981511 -8.963620 -36.657948 -0.298498 3.512888 -9.710048 0.295827 0.331414 12.564241 2.778145 0.605758 3.076795 2.642711 0.303539 -3.841949 6.908245 0.230063 -19.647616 -7.937424 0.169255 21.309732 -3.952192 -0.304109 10.033386 0.000000 0.000000 0.000000 5.963487 5.041443 -27.659368 15.877833 -25.354655 3.593534 9.345958 -4.429607 -0.640654 0.000000 0.000000 0.000000 -7.125000 0.000000 0.000000 -13.565869 30.466173 -4.938706 0.000000 0.000000 0.000000 -4.949942 1.155082 8.476218 -13.490478 -22.001602 -2.634169 -15.212692 0.777137 5.361938 0.000000 0.000000 0.000000 7.125000 0.000000 0.000000 9.549619 35.401120 2.278125
0.524292 15.683294 -31.219358 -2.069514 2.923266 0.423358 0.000000 0.000000 0.000000 -12.293765 1.802885 -30.072410 12.646558 18.650832 68.024106 2.973635 3.446921 -33.945579 0.535679 -4.689511 -13.025144 0.000000 0.000000 0.000000 15.339894 -0.477847 -29.401521 -12.990386 -18.778639 69.095598 -2.871654 -8.750899 -35.969907 -0.299158 3.517010 -9.721668 0.407943 0.259355 12.417869 2.809918 0.526052 2.976552 2.625014 0.264041 -3.862518 6.718516 0.297068 -19.469604 -7.838634 0.250698 20.016654 -3.830063 -0.272910 9.551132 0.000000 0.000000 0.000000 6.550032 4.994039 -28.757179 17.529486 -27.550327 4.329529 9.718463 -5.813920 -0.852061 0.000000 0.000000 0.000000 -7.125000 0.000000 0.000000 -13.306401 30.682862 -4.768411 0.000000 0.000000 0.000000 -5.358938 1.716041 10.371989 -14.533141 -23.491743 -3.037411 -15.146100 -0.793793 5.560959 0.000000 0.000000 0.000000 7.125000 0.000000 0.000000 9.633322 35.600882 2.251035
0.676927 15.738746 -31.161516 -2.003225 3.125883 1.105995 0.000000 0.000000 0.000000 -13.276277 0.747126 -29.916815 12.406562 18.557265 67.271866 2.894968 4.747349 -34.072481 0.502530 -4.544446 -12.613736 0.000000 0.000000 0.000000 14.853567 -0.021850 -29.239038 -12.665662 -18.658089 68.083816 -2.770813 -9.487539 -35.863153 -0.273851 3.366108 -9.299671 0.382185 0.271629 12.307873 2.798342 0.541841 2.771889 2.625497 0.273896 -4.017232 6.597498 0.243564 -19.101073 -7.680150 0.158191 19.135769 -3.734709 -0.304257 9.170009 0.000000 0.000000 0.000000 6.957657 4.814296 -29.880024 19.294781 -29.783340 5.176441 10.651446 -8.328064 0.167549 0.000000 0.000000 0.000000 -7.125000 0.000000 0.000000 -12.448180 29.690496 -4.749635 0.000000 0.000000 0.000000 -5.975559 1.819955 11.296882 -15.420169 -24.728173 -3.399752 -15.299762 -1.656426 5.589860 0.000000 0.000000 0.000000 7.125000 0.000000 0.000000 9.510768 35.638240 2.212959
0.913554 15.742387 -30.998036 -1.632530 2.678203 1.060728 0.000000 0.000000 0.000000 -14.834907 0.471806 -28.495145 12.187010 18.468615 66.580342 2.990304 5.750493 -35.048902 0.475887 -4.423959 -12.272685 0.000000 0.000000 0.000000 13.575224 0.396393 -28.088882 -12.509667 -18.597914 67.595411 -2.780645 -9.560029 -35.957544 -0.280351 3.405626 -9.410039 0.243711 0.507055 11.721608 2.597588 0.820873 2.565966 2.450985 0.413213 -3.921325 6.531931 0.233088 -18.490104 -7.560993 0.171317 19.136410 -3.671682 -0.279869 9.060306 0.000000 0.000000 0.000000 6.818730 4.966018 -29.003335 19.540180 -30.084412 5.298890 11.043177 -8.684915 -0.312086 0.000000 0.000000 0.000000 -7.125000 0.000000 0.000000 -12.204967 30.173990 -4.508647 0.000000 0.000000 0.000000 -6.660883 2.285247 11.736912 -16.179292 -25.763087 -3.723515 -15.326874 -2.582363 5.261408 0.000000 0.000000 0.000000 7.125000 0.000000 0.000000 9.441445 35.304148 2.274263
